# xmcd
#
# Track frame offsets:
#	150
#	27412
#	47349
#	62327
#	75631
#	102382
#	120578
#	145780
#	161316
#	175466
#	193106
#	209994
#	234319
#	256584
#	273176
#	294887
#
# Disc length: 4128 seconds
# Revision: 0
# Processed by: cddbd v1.5.2PL0 Copyright (c) Steve Scherf et al.
# Submitted via: dBpowerAMP V12.0
#
DISCID=d6101e10
DTITLE=Various Artist - Krossborder Kompilation Vol 1
DYEAR=2013
DGENRE=Blues
TTITLE0=Deep Inside
TTITLE1=Outta Town
TTITLE2=Cold Love
TTITLE3=Ghost Train
TTITLE4=Bad Advice
TTITLE5=Bringing Out The Devil
TTITLE6=Hell On Wheels
TTITLE7=Shotgun Blues
TTITLE8=Come Share The Blues
TTITLE9=It Might Just Be Too Late
TTITLE10=Better Things To Do
TTITLE11=Lucifer Is Blue
TTITLE12=Alright Now Papa
TTITLE13=Gone So Long
TTITLE14=Bitter Sweet
TTITLE15=Temperature
EXTD=
EXTT0=
EXTT1=
EXTT2=
EXTT3=
EXTT4=
EXTT5=
EXTT6=
EXTT7=
EXTT8=
EXTT9=
EXTT10=
EXTT11=
EXTT12=
EXTT13=
EXTT14=
EXTT15=
PLAYORDER=
